<?xml version="1.0" standalone="no"?>
<!DOCTYPE svg PUBLIC "-//W3C//DTD SVG 20010904//EN"
 "http://www.w3.org/TR/2001/REC-SVG-20010904/DTD/svg10.dtd">
<svg version="1.0" xmlns="http://www.w3.org/2000/svg"
 width="512.000000pt" height="512.000000pt" viewBox="0 0 512.000000 512.000000"
 preserveAspectRatio="xMidYMid meet">

<g transform="translate(0.000000,512.000000) scale(0.100000,-0.100000)"
fill="#000000" stroke="none">
<path d="M2410 5015 c-47 -19 -517 -214 -1044 -433 -910 -376 -963 -400 -1012
-445 -31 -28 -65 -72 -81 -105 -26 -53 -28 -67 -31 -199 l-4 -143 -70 0 c-83
0 -117 -16 -147 -70 -18 -33 -21 -54 -21 -171 0 -108 3 -141 18 -169 24 -48
70 -72 153 -78 l69 -5 0 -157 c0 -220 -18 -204 244 -208 l206 -3 0 -1020 0
-1019 -150 0 -150 0 0 894 c0 889 0 893 -21 920 -27 34 -79 36 -109 4 -20 -22
-20 -29 -20 -1064 l0 -1042 -79 -3 c-68 -4 -83 -8 -106 -29 -47 -44 -55 -71
-55 -185 0 -114 8 -141 55 -185 l27 -25 2478 0 2478 0 27 25 c47 44 55 71 55
185 0 114 -8 141 -55 185 -23 21 -38 25 -106 29 l-79 3 0 1348 0 1347 69 5
c82 6 126 29 152 78 16 29 19 57 19 168 0 118 -3 139 -21 172 -30 54 -64 70
-147 70 l-70 0 -4 143 c-3 131 -6 146 -31 199 -17 34 -50 77 -81 105 -51 47
-102 69 -1087 478 -1009 418 -1036 429 -1109 432 -67 3 -84 0 -160 -32z m1218
-543 c589 -244 1024 -430 1039 -443 49 -46 63 -93 63 -221 l0 -118 -299 0
-298 0 -5 93 c-5 99 -18 135 -65 179 -58 55 -76 58 -400 58 -324 0 -333 -1
-353 -56 -9 -23 -13 -24 -105 -24 -92 0 -96 1 -105 24 -22 59 33 56 -1000 56
-1059 0 -989 4 -1057 -73 -40 -45 -53 -91 -53 -184 l0 -73 -300 0 -300 0 0
118 c0 135 16 182 72 225 18 14 483 212 1033 440 550 228 1007 417 1015 420
48 20 126 -9 1118 -421z m-2638 -1377 l0 -105 -300 0 -300 0 0 105 0 105 300
0 300 0 0 -105z m3740 0 l0 -105 -300 0 -300 0 0 105 0 105 300 0 300 0 0
-105z m-3738 -337 c4 -90 29 -142 87 -183 l43 -30 229 -3 229 -3 0 -875 0
-874 -365 0 -365 0 0 1020 0 1020 69 0 69 0 4 -72z m3278 -948 l0 -1020 -365
0 -365 0 0 874 0 875 228 3 229 3 41 28 c56 37 84 94 90 185 l5 72 68 0 69 0
0 -1020z m460 0 l0 -1020 -155 0 -155 0 0 1020 0 1020 155 0 155 0 0 -1020z
m-2690 -145 l0 -875 -155 0 -155 0 0 868 c0 478 3 872 7 875 3 4 73 7 155 7
l148 0 0 -875z m885 862 c3 -7 4 -152 3 -324 l-3 -312 -110 91 c-128 106 -178
131 -255 131 -71 0 -128 -25 -210 -94 -36 -30 -86 -72 -112 -93 l-48 -38 0
326 0 326 365 0 c285 0 367 -3 370 -13z m463 -864 l2 -873 -155 0 -155 0 0
875 0 876 153 -3 152 -3 3 -872z m-751 260 c87 -66 227 -185 256 -216 l27 -31
0 -443 0 -443 -140 0 -140 0 0 410 c0 283 -3 417 -11 434 -7 13 -25 30 -40 37
-37 15 -82 -2 -98 -37 -8 -17 -11 -151 -11 -434 l0 -410 -145 0 -145 0 0 425
c0 340 3 432 14 459 9 21 57 69 134 134 204 172 217 177 299 115z m1380 -1523
c6 -17 23 -34 38 -40 16 -6 196 -10 471 -10 l444 0 0 -65 0 -65 -2410 0 -2410
0 0 65 0 65 1795 0 c1312 0 1801 3 1819 11 13 7 30 25 37 40 l11 29 97 0 97 0
11 -30z"/>
<path d="M2509 4474 c-76 -75 -140 -147 -143 -160 -8 -31 17 -81 45 -89 11 -4
30 -4 42 -1 12 3 85 68 161 145 121 122 139 144 139 172 0 39 -32 69 -76 69
-26 0 -52 -21 -168 -136z"/>
<path d="M1176 2357 c-25 -25 -26 -30 -26 -151 0 -123 0 -125 26 -145 35 -28
69 -26 99 4 24 23 25 30 25 143 0 134 -9 157 -67 168 -26 5 -37 1 -57 -19z"/>
<path d="M1172 1837 c-20 -21 -22 -34 -22 -139 0 -64 3 -124 6 -133 10 -26 63
-45 93 -34 44 17 50 36 51 162 0 112 -1 119 -25 142 -31 32 -74 33 -103 2z"/>
<path d="M1195 1338 c-41 -22 -45 -38 -45 -163 0 -114 1 -123 23 -143 31 -29
72 -28 102 3 24 23 25 30 25 143 0 105 -2 121 -20 140 -12 12 -25 22 -30 22
-4 0 -14 2 -22 5 -7 2 -22 0 -33 -7z"/>
<path d="M3859 2351 c-28 -29 -29 -32 -29 -136 0 -75 4 -115 15 -135 19 -36
59 -49 94 -29 44 25 52 54 49 173 -3 104 -4 109 -31 132 -37 32 -62 30 -98 -5z"/>
<path d="M3855 1835 c-24 -23 -25 -30 -25 -139 0 -106 2 -117 23 -142 29 -33
80 -36 111 -5 16 17 21 37 24 110 5 107 -2 155 -29 182 -27 27 -74 24 -104 -6z"/>
<path d="M3883 1340 c-46 -18 -55 -50 -51 -175 3 -109 5 -118 27 -136 50 -40
114 -12 127 56 3 20 4 76 2 126 -3 72 -8 93 -24 108 -25 24 -54 32 -81 21z"/>
</g>
</svg>
